<svg xmlns="http://www.w3.org/2000/svg" viewBox="0 0 920 250" width="100%" height="100%">
  <defs>
    <linearGradient id="bgGrad" x1="0%" y1="0%" x2="100%" y2="100%">
      <stop offset="0%" stop-color="#060606" />
      <stop offset="50%" stop-color="#101010" />
      <stop offset="100%" stop-color="#080808" />
    </linearGradient>

    <linearGradient id="cardGrad" x1="0%" y1="0%" x2="100%" y2="100%">
      <stop offset="0%" stop-color="#121212" stop-opacity="0.8" />
      <stop offset="100%" stop-color="#0A0A0A" stop-opacity="0.9" />
    </linearGradient>

    <linearGradient id="topSheen" x1="0%" y1="0%" x2="100%" y2="0%">
      <stop offset="0%" stop-color="#262626" stop-opacity="0.2" />
      <stop offset="50%" stop-color="#FFFFFF" stop-opacity="0.8" />
      <stop offset="100%" stop-color="#262626" stop-opacity="0.2" />
    </linearGradient>

    <style>
      .sans { font-family: -apple-system, BlinkMacSystemFont, "Segoe UI", "Inter", Roboto, Helvetica, sans-serif; }
      .title { font-size: 11px; font-weight: 700; fill: #666666; letter-spacing: 0.8px; }
    </style>
  </defs>

  <rect width="920" height="250" rx="16" fill="url(#bgGrad)" stroke="#222222" stroke-width="1.2" />
  <rect x="0" y="0" width="920" height="1.8" fill="url(#topSheen)" />

  <g transform="translate(36, 26)">
    <rect width="400" height="196" rx="12" fill="url(#cardGrad)" stroke="#222222" stroke-width="0.8" />
    <text x="24" y="24" class="sans title">REPOSITORIES BY LANGUAGE</text>

    <g transform="translate(16, 32)">
      <circle cx="110" cy="110" r="54" fill="none" stroke="#161616" stroke-width="22" />
      
      <circle
        cx="110" cy="110" r="54"
        fill="none"
        stroke="#FFFFFF"
        stroke-width="20"
        stroke-dasharray="261.21 339.29"
        stroke-dashoffset="0.00"
        transform="rotate(-90 110 110)"
      />
    
      <circle
        cx="110" cy="110" r="54"
        fill="none"
        stroke="#D1D5DB"
        stroke-width="20"
        stroke-dasharray="45.66 339.29"
        stroke-dashoffset="-261.21"
        transform="rotate(-90 110 110)"
      />
    
      <circle
        cx="110" cy="110" r="54"
        fill="none"
        stroke="#9CA3AF"
        stroke-width="20"
        stroke-dasharray="10.76 339.29"
        stroke-dashoffset="-306.87"
        transform="rotate(-90 110 110)"
      />
    
      <circle
        cx="110" cy="110" r="54"
        fill="none"
        stroke="#6B7280"
        stroke-width="20"
        stroke-dasharray="7.72 339.29"
        stroke-dashoffset="-317.63"
        transform="rotate(-90 110 110)"
      />
    
      <circle
        cx="110" cy="110" r="54"
        fill="none"
        stroke="#4B5563"
        stroke-width="20"
        stroke-dasharray="5.84 339.29"
        stroke-dashoffset="-325.35"
        transform="rotate(-90 110 110)"
      />
    
      <circle
        cx="110" cy="110" r="54"
        fill="none"
        stroke="#374151"
        stroke-width="20"
        stroke-dasharray="4.60 339.29"
        stroke-dashoffset="-331.20"
        transform="rotate(-90 110 110)"
      />
    
      <text x="110" y="106" text-anchor="middle" fill="#FFFFFF" font-size="14" font-weight="700" class="sans">199.2 MB</text>
      <text x="110" y="122" text-anchor="middle" fill="#666666" font-size="9.5" font-weight="600" class="sans">CODE TOTAL</text>
      
      <g transform="translate(230, 20)">
        <rect width="9" height="9" rx="2.5" fill="#FFFFFF" />
        <text x="16" y="8.5" fill="#EDEDED" font-size="11" font-weight="600" class="sans">TypeScript</text>
        <text x="155" y="8.5" text-anchor="end" fill="#888888" font-size="10.5" font-weight="500" class="sans">77.0%</text>
      </g>
    
      <g transform="translate(230, 45)">
        <rect width="9" height="9" rx="2.5" fill="#D1D5DB" />
        <text x="16" y="8.5" fill="#EDEDED" font-size="11" font-weight="600" class="sans">JavaScript</text>
        <text x="155" y="8.5" text-anchor="end" fill="#888888" font-size="10.5" font-weight="500" class="sans">13.5%</text>
      </g>
    
      <g transform="translate(230, 70)">
        <rect width="9" height="9" rx="2.5" fill="#9CA3AF" />
        <text x="16" y="8.5" fill="#EDEDED" font-size="11" font-weight="600" class="sans">CSS</text>
        <text x="155" y="8.5" text-anchor="end" fill="#888888" font-size="10.5" font-weight="500" class="sans">3.2%</text>
      </g>
    
      <g transform="translate(230, 95)">
        <rect width="9" height="9" rx="2.5" fill="#6B7280" />
        <text x="16" y="8.5" fill="#EDEDED" font-size="11" font-weight="600" class="sans">Go</text>
        <text x="155" y="8.5" text-anchor="end" fill="#888888" font-size="10.5" font-weight="500" class="sans">2.3%</text>
      </g>
    
      <g transform="translate(230, 120)">
        <rect width="9" height="9" rx="2.5" fill="#4B5563" />
        <text x="16" y="8.5" fill="#EDEDED" font-size="11" font-weight="600" class="sans">PLpgSQL</text>
        <text x="155" y="8.5" text-anchor="end" fill="#888888" font-size="10.5" font-weight="500" class="sans">1.7%</text>
      </g>
    
      <g transform="translate(230, 145)">
        <rect width="9" height="9" rx="2.5" fill="#374151" />
        <text x="16" y="8.5" fill="#EDEDED" font-size="11" font-weight="600" class="sans">Python</text>
        <text x="155" y="8.5" text-anchor="end" fill="#888888" font-size="10.5" font-weight="500" class="sans">1.4%</text>
      </g>
    
    </g>
  </g>

  <g transform="translate(484, 26)">
    <rect width="400" height="196" rx="12" fill="url(#cardGrad)" stroke="#222222" stroke-width="0.8" />
    <text x="24" y="24" class="sans title">COMMIT ACTIVITY TIME (UTC+7)</text>

    <g transform="translate(24, 40)">
      
      <g transform="translate(0, 30)">
        <text x="0" y="11" fill="#CCCCCC" font-size="11.5" font-weight="500" class="sans">Morning (06 - 12)</text>
        <rect x="140" y="2" width="220" height="12" rx="6" fill="#141414" stroke="#222222" stroke-width="0.8" />
        <rect x="140" y="2" width="24" height="12" rx="6" fill="#EDEDED" />
        <text x="375" y="11" fill="#888888" font-size="11" font-weight="600" class="sans">11.1%</text>
      </g>
    
      <g transform="translate(0, 62)">
        <text x="0" y="11" fill="#CCCCCC" font-size="11.5" font-weight="500" class="sans">Afternoon (12 - 18)</text>
        <rect x="140" y="2" width="220" height="12" rx="6" fill="#141414" stroke="#222222" stroke-width="0.8" />
        <rect x="140" y="2" width="30" height="12" rx="6" fill="#EDEDED" />
        <text x="375" y="11" fill="#888888" font-size="11" font-weight="600" class="sans">13.6%</text>
      </g>
    
      <g transform="translate(0, 94)">
        <text x="0" y="11" fill="#CCCCCC" font-size="11.5" font-weight="500" class="sans">Evening (18 - 00)</text>
        <rect x="140" y="2" width="220" height="12" rx="6" fill="#141414" stroke="#222222" stroke-width="0.8" />
        <rect x="140" y="2" width="100" height="12" rx="6" fill="#EDEDED" />
        <text x="375" y="11" fill="#888888" font-size="11" font-weight="600" class="sans">45.7%</text>
      </g>
    
      <g transform="translate(0, 126)">
        <text x="0" y="11" fill="#CCCCCC" font-size="11.5" font-weight="500" class="sans">Night (00 - 06)</text>
        <rect x="140" y="2" width="220" height="12" rx="6" fill="#141414" stroke="#222222" stroke-width="0.8" />
        <rect x="140" y="2" width="65" height="12" rx="6" fill="#EDEDED" />
        <text x="375" y="11" fill="#888888" font-size="11" font-weight="600" class="sans">29.6%</text>
      </g>
    
    </g>
  </g>
</svg>